<?xml version="1.0" encoding="UTF-8"?>
<!-- Generator: visioncortex VTracer 0.6.3 -->
<svg version="1.1" xmlns="http://www.w3.org/2000/svg" width="80" height="80">
<path d="M0 0 C10.25 6.36 15.88 14.27 19.68 25.66 C20.67 39.39 19.63 50 10.62 61.04 C3.75 68.21 -5.45 72.7 -15.38 73.01 C-28.28 73.18 -37.57 70.43 -47.12 61.28 C-55.53 51.29 -57.15 40.48 -56.53 27.91 C-55.6 18.1 -49.69 9.87 -42.32 3.66 C-29.5 -4.15 -13.91 -6.9 0 0 Z " fill="#FBFCFC" transform="translate(58.3203125,5.3359375)"/>
<path d="M0 0 C0.66 0 1.32 0 2 0 C2 3.3 2 6.6 2 10 C2.66 10 3.32 10 4 10 C4 6.7 4 3.4 4 0 C4.66 0 5.32 0 6 0 C6 3.3 6 6.6 6 10 C6.66 10 7.32 10 8 10 C8 6.7 8 3.4 8 0 C8.66 0 9.32 0 10 0 C10 3.3 10 6.6 10 10 C10.66 10 11.32 10 12 10 C12 6.7 12 3.4 12 0 C24.61 -0.62 24.61 -0.62 29.62 1.62 C33.88 5.88 36.23 9.07 36.39 15.18 C36.36 17.08 36.32 18.98 36.25 20.88 C36.23 21.85 36.21 22.82 36.2 23.83 C36.15 26.22 36.08 28.61 36 31 C34.35 31.33 32.7 31.66 31 32 C31.11 33.19 31.21 34.38 31.32 35.61 C31.45 37.18 31.57 38.75 31.69 40.31 C31.76 41.1 31.83 41.88 31.91 42.69 C31.99 43.83 31.99 43.83 32.07 44.99 C32.13 45.68 32.19 46.38 32.25 47.1 C32 49 32 49 30.84 50.73 C28.33 52.46 26.6 52.39 23.56 52.4 C22.5 52.4 21.44 52.41 20.35 52.41 C19.25 52.4 18.14 52.39 17 52.38 C15.89 52.39 14.79 52.4 13.65 52.41 C12.59 52.41 11.53 52.4 10.44 52.4 C9.47 52.4 8.5 52.39 7.5 52.39 C5 52 5 52 3.17 50.87 C1.44 48.11 1.7 45.92 1.78 42.69 C1.8 41.45 1.81 40.21 1.83 38.93 C1.87 37.63 1.9 36.34 1.94 35 C2 32.44 2.05 29.88 2.09 27.31 C2.13 25.61 2.13 25.61 2.18 23.86 C2.23 20.8 2.23 20.8 0 18 C-0.23 16.01 -0.23 16.01 -0.2 13.77 C-0.19 12.97 -0.18 12.16 -0.18 11.34 C-0.16 10.5 -0.14 9.67 -0.12 8.81 C-0.12 7.97 -0.11 7.12 -0.1 6.25 C-0.07 4.17 -0.04 2.08 0 0 Z " fill="#DEE0F1" transform="translate(22,14)"/>
<path d="M0 0 C10.25 6.36 15.88 14.27 19.68 25.66 C20.67 39.39 19.63 50 10.62 61.04 C3.75 68.21 -5.45 72.7 -15.38 73.01 C-28.28 73.18 -37.57 70.43 -47.12 61.28 C-55.53 51.29 -57.15 40.48 -56.53 27.91 C-55.6 18.1 -49.69 9.87 -42.32 3.66 C-29.5 -4.15 -13.91 -6.9 0 0 Z M-46.71 11.64 C-53.66 20.41 -55.08 29.77 -54.32 40.66 C-52.44 50.16 -46.88 58.68 -39.32 64.66 C-29.84 70.4 -20.68 72 -9.76 69.98 C-0.11 67.51 8.03 61.6 13.25 53.1 C17.98 44.01 19.56 33.9 16.49 23.91 C12.35 13.24 5.53 5.4 -4.91 0.6 C-8.11 -0.64 -10.9 -1.15 -14.32 -1.34 C-15.09 -1.39 -15.86 -1.44 -16.66 -1.49 C-28.59 -1.95 -38.54 3.08 -46.71 11.64 Z " fill="#6C7E93" transform="translate(58.3203125,5.3359375)"/>
<path d="M0 0 C0.66 0 1.32 0 2 0 C2 3.3 2 6.6 2 10 C2.66 10 3.32 10 4 10 C4 6.7 4 3.4 4 0 C4.66 0 5.32 0 6 0 C6 3.3 6 6.6 6 10 C6.66 10 7.32 10 8 10 C8 6.7 8 3.4 8 0 C8.66 0 9.32 0 10 0 C10 3.3 10 6.6 10 10 C10.66 10 11.32 10 12 10 C12 6.7 12 3.4 12 0 C12.66 0 13.32 0 14 0 C14.05 2.94 14.09 5.87 14.12 8.81 C14.14 9.65 14.16 10.48 14.18 11.34 C14.18 12.14 14.19 12.94 14.2 13.77 C14.21 14.51 14.22 15.25 14.23 16.01 C14 18 14 18 12 21 C11.77 23.96 11.77 23.96 11.91 27.31 C11.93 28.55 11.95 29.79 11.97 31.07 C12.03 33.69 12.1 36.31 12.17 38.93 C12.18 40.17 12.2 41.41 12.22 42.69 C12.25 43.83 12.28 44.96 12.31 46.14 C12 49 12 49 10.68 50.91 C9 52 9 52 5.88 51.81 C4.93 51.54 3.98 51.28 3 51 C1.6 48.2 1.92 45.91 1.97 42.79 C1.98 41.54 2 40.3 2.01 39.02 C2.04 36.38 2.08 33.75 2.13 31.12 C2.14 29.87 2.15 28.63 2.16 27.35 C2.18 26.2 2.19 25.06 2.21 23.88 C2.22 20.8 2.22 20.8 0 18 C-0.23 16.01 -0.23 16.01 -0.2 13.77 C-0.19 12.97 -0.18 12.16 -0.18 11.34 C-0.16 10.5 -0.14 9.67 -0.12 8.81 C-0.12 7.97 -0.11 7.12 -0.1 6.25 C-0.07 4.17 -0.04 2.08 0 0 Z " fill="#937FA8" transform="translate(22,14)"/>
<path d="M0 0 C0.66 0 1.32 0 2 0 C8.55 7.02 11.69 14.32 11.41 23.93 C10.49 30.83 7.4 36.09 2.19 40.62 C1.14 41.41 0.08 42.19 -1 43 C-2.13 37.64 -2.1 32.45 -2 27 C-0.68 26.67 0.64 26.34 2 26 C2.06 22.6 2.09 19.21 2.12 15.81 C2.14 14.85 2.16 13.89 2.18 12.9 C2.18 11.97 2.19 11.04 2.2 10.08 C2.21 8.8 2.21 8.8 2.23 7.5 C1.97 4.69 1.16 2.55 0 0 Z " fill="#E0E9F1" transform="translate(55,19)"/>
<path d="M0 0 C0.33 0 0.66 0 1 0 C1.07 1.03 1.07 1.03 1.15 2.08 C1.22 2.98 1.3 3.88 1.38 4.81 C1.44 5.71 1.51 6.6 1.59 7.52 C1.87 10.24 1.87 10.24 4 13 C4.7 21.29 3.83 29.74 3 38 C-2.82 34.03 -5.26 29.83 -7 23 C-8.24 14.89 -6.42 8.85 -2 2 C-1.34 1.34 -0.68 0.68 0 0 Z " fill="#E1EAF1" transform="translate(21,22)"/>
<path d="M0 0 C5.46 0.69 8.02 2.11 12 6 C13.92 9.08 14.24 11.38 14.2 14.98 C14.19 16.39 14.19 16.39 14.18 17.82 C14.16 18.78 14.14 19.75 14.12 20.75 C14.12 21.73 14.11 22.72 14.1 23.73 C14.07 26.15 14.04 28.58 14 31 C12.35 31.33 10.7 31.66 9 32 C9.11 33.19 9.21 34.38 9.32 35.61 C9.45 37.18 9.57 38.75 9.69 40.31 C9.76 41.1 9.83 41.88 9.91 42.69 C9.96 43.45 10.02 44.21 10.07 44.99 C10.13 45.68 10.19 46.38 10.25 47.1 C10 49 10 49 8.69 50.76 C7 52 7 52 3.88 51.81 C2.93 51.54 1.98 51.28 1 51 C-0.22 48.56 -0.12 47 -0.11 44.27 C-0.11 43.29 -0.11 42.31 -0.11 41.3 C-0.11 40.24 -0.1 39.18 -0.1 38.09 C-0.1 37 -0.09 35.92 -0.09 34.8 C-0.09 31.32 -0.08 27.85 -0.06 24.38 C-0.06 22.02 -0.05 19.67 -0.05 17.32 C-0.04 11.55 -0.02 5.77 0 0 Z M2 2 C2 17.51 2 33.02 2 49 C3.65 49.33 5.3 49.66 7 50 C8.28 48.94 8.28 48.94 8.13 46.52 C8.12 40.91 8 35.53 7 30 C8.65 30 10.3 30 12 30 C12.18 26.81 12.28 23.63 12.38 20.44 C12.43 19.54 12.48 18.65 12.53 17.72 C12.66 11.8 11.75 8.62 7.69 4.26 C5.79 2.67 5.79 2.67 2 2 Z " fill="#8E7AA4" transform="translate(44,14)"/>
<path d="M0 0 C3.3 0 6.6 0 10 0 C10.12 2.88 10.12 2.88 10 6 C9.34 6.66 8.68 7.32 8 8 C7.72 11.01 7.72 11.01 7.8 14.54 C7.81 15.84 7.82 17.14 7.82 18.48 C7.84 19.86 7.86 21.24 7.88 22.62 C7.89 24.01 7.89 25.4 7.9 26.79 C7.93 30.19 7.96 33.6 8 37 C6.34 37.38 4.68 37.71 3 38 C2 37 2 37 1.92 34.26 C1.94 33.06 1.95 31.86 1.97 30.63 C1.98 29.33 2 28.04 2.01 26.7 C2.03 24.63 2.06 22.56 2.1 20.49 C2.13 18.49 2.14 16.5 2.16 14.5 C2.18 13.31 2.19 12.11 2.21 10.87 C2.3 7.87 2.3 7.87 0 6 C-0.12 2.88 -0.12 2.88 0 0 Z " fill="#D8D0EE" transform="translate(24,26)"/>
</svg>
