<?xml version="1.0" encoding="UTF-8"?>
<!-- Generator: visioncortex VTracer 0.6.3 -->
<svg version="1.1" xmlns="http://www.w3.org/2000/svg" width="80" height="80">
<path d="M0 0 C4.2 1.64 6.99 4.73 10.08 7.88 C10.65 8.46 11.22 9.03 11.81 9.62 C13.63 11.45 15.44 13.29 17.25 15.12 C18.48 16.37 19.72 17.61 20.95 18.86 C23.97 21.9 26.99 24.95 30 28 C33.19 25.28 33.19 25.28 34.25 21.41 C34.17 20.49 34.09 19.57 34 18.62 C33.83 13.47 34.37 10.91 38 7 C44.83 1.08 51.24 -0.46 60.21 -0.33 C63.83 0.1 65.64 1.24 68 4 C70.46 8.93 69.74 15.76 68.06 20.84 C65.14 26.93 61.66 31.23 56 35 C52.92 35.06 49.89 34.87 46.81 34.68 C43.87 34.71 43.87 34.71 42.12 37.01 C41.75 37.67 41.38 38.32 41 39 C47.87 46.01 47.87 46.01 55.12 52.62 C55.76 53.18 56.39 53.73 57.04 54.29 C58.44 55.51 59.85 56.72 61.27 57.93 C67.51 63.56 67.51 63.56 67.75 68.25 C67 72 67 72 65.5 74.5 C62.04 76.58 58.89 76.78 55 76 C52.39 74.37 50.48 72.28 48.44 70 C47.88 69.41 47.32 68.81 46.74 68.2 C43.2 64.43 39.78 60.54 36.43 56.59 C34.5 54.44 32.33 52.7 30 51 C24.11 55.94 18.78 61.23 13.56 66.88 C12.84 67.65 12.13 68.42 11.38 69.21 C10.07 70.62 8.76 72.03 7.46 73.44 C5.08 75.99 5.08 75.99 3.04 76.2 C1.84 76.23 1.84 76.23 0.62 76.25 C-0.17 76.28 -0.96 76.3 -1.77 76.33 C-4 76 -4 76 -5.74 74.74 C-7.73 71.99 -7.78 69.8 -7.67 66.47 C-6.28 61.36 -1.9 58.31 2 55 C2.74 54.35 3.48 53.69 4.24 53.02 C5.57 51.84 6.92 50.67 8.27 49.51 C10.27 47.76 12.16 45.92 14 44 C12.12 38.96 7.72 35.69 3.88 32.13 C-0.95 27.49 -4.38 22.73 -5.5 16.02 C-5.35 9.55 -4.78 4.78 0 0 Z " fill="#8F78A4" transform="translate(9,2)"/>
<path d="M0 0 C2.37 1.88 3.88 3.54 4.53 6.56 C4.85 13.7 2.25 18.95 -1.88 24.69 C-5.07 28.06 -7.85 29.58 -12.56 30.06 C-15.87 29.69 -15.87 29.69 -17.94 28.88 C-19.92 28.48 -19.92 28.48 -21.45 29.73 C-22.97 31 -24.43 32.34 -25.88 33.69 C-27.52 31.71 -29.17 29.73 -30.88 27.69 C-30.03 27.09 -29.18 26.49 -28.31 25.88 C-26.82 24.55 -26.82 24.55 -25.88 22.69 C-25.85 20.06 -25.85 20.06 -26.31 17.25 C-26.83 13.44 -27.01 12.01 -25.5 8.38 C-18.75 1.46 -9.69 -4.43 0 0 Z " fill="#DAD2F0" transform="translate(71.875,5.3125)"/>
<path d="M0 0 C3.27 1.43 5.43 3.19 7.94 5.72 C9.08 6.86 9.08 6.86 10.25 8.02 C11.06 8.84 11.87 9.66 12.7 10.51 C13.54 11.35 14.38 12.19 15.24 13.06 C17.92 15.74 20.58 18.43 23.25 21.12 C25.06 22.95 26.87 24.77 28.69 26.59 C33.13 31.05 37.57 35.53 42 40 C40.02 42.31 38.04 44.62 36 47 C35.51 46.51 35.01 46.01 34.5 45.5 C31.94 43.65 31.94 43.65 28.21 44.22 C24.69 44.28 24.05 44.03 20.94 41.91 C19.96 40.96 19.01 39.99 18.07 39 C17.3 38.22 17.3 38.22 16.52 37.43 C15.44 36.34 14.37 35.24 13.31 34.13 C11.7 32.45 10.05 30.79 8.4 29.15 C7.35 28.08 6.31 27.01 5.26 25.93 C4.78 25.44 4.29 24.96 3.79 24.45 C-0.46 19.96 -2.72 15.64 -3.38 9.44 C-2.97 5.69 -1.9 3.24 0 0 Z " fill="#DAD3F0" transform="translate(9,6)"/>
<path d="M0 0 C3.38 1.45 5.46 3.37 8 6 C7.26 6.73 7.26 6.73 6.5 7.47 C3.02 10.9 -0.37 14.36 -3.56 18.06 C-12.84 28.74 -12.84 28.74 -16.75 29.62 C-19.43 28.88 -20.47 28.34 -22 26 C-22.45 23.79 -22.45 23.79 -22 21 C-20.26 18.6 -18.16 16.64 -16 14.62 C-15.11 13.77 -15.11 13.77 -14.21 12.9 C-9.93 8.79 -5.54 4.82 -1 1 C-0.67 0.67 -0.34 0.34 0 0 Z " fill="#F2CB83" transform="translate(26,47)"/>
<path d="M0 0 C4.4 2.76 7.91 5.7 11.56 9.44 C12.47 10.36 13.38 11.29 14.32 12.25 C15.2 13.15 16.09 14.06 17 15 C17.94 15.87 18.87 16.75 19.84 17.65 C22 20 22 20 22 23.19 C21 26 21 26 18 28 C13.92 27.96 12.33 27.29 9.25 24.56 C8.34 23.53 7.45 22.49 6.56 21.44 C6.09 20.9 5.62 20.36 5.13 19.81 C3.74 18.21 2.37 16.61 1 15 C-0.39 13.42 -1.79 11.83 -3.19 10.25 C-4.12 9.18 -5.04 8.11 -6 7 C-4.02 4.69 -2.04 2.38 0 0 Z " fill="#F2CB83" transform="translate(52,48)"/>
<path d="M0 0 C2.96 1.34 5.14 2.85 7.5 5.08 C8.46 5.99 8.46 5.99 9.44 6.91 C10.1 7.54 10.76 8.17 11.44 8.81 C12.09 9.43 12.75 10.05 13.42 10.68 C14.7 11.89 15.98 13.1 17.25 14.32 C18.79 15.8 20.36 17.25 21.94 18.7 C24.07 21.08 24.67 21.93 24.56 25.06 C24 29 24 29 22.5 31.5 C19.04 33.58 15.89 33.78 12 33 C9.39 31.37 7.48 29.29 5.44 27 C4.88 26.41 4.32 25.81 3.75 25.2 C2.65 24.02 1.56 22.84 0.48 21.64 C-0.79 20.24 -2.09 18.86 -3.39 17.5 C-8 12.56 -8 12.56 -8 8 C-6.25 5.86 -6.25 5.86 -4 3.75 C-3.26 3.04 -2.52 2.34 -1.75 1.61 C-1.17 1.08 -0.59 0.55 0 0 Z M0 3 C-1.05 4.14 -2.07 5.31 -3.06 6.5 C-3.88 7.47 -3.88 7.47 -4.72 8.47 C-5.14 8.97 -5.57 9.48 -6 10 C-4.81 11.29 -4.81 11.29 -3.59 12.6 C-3.07 13.15 -2.56 13.7 -2.04 14.27 C-0.93 15.47 0.19 16.66 1.3 17.86 C4.12 20.91 6.82 23.97 9.38 27.25 C11.79 30.18 11.79 30.18 15.12 31.19 C18.08 31.23 18.08 31.23 20.44 29.44 C22.26 27.09 22.26 27.09 21.95 24.19 C20.75 20.15 18.56 18.18 15.44 15.56 C14.9 15.09 14.36 14.62 13.8 14.13 C12.72 13.19 11.63 12.25 10.54 11.31 C8.43 9.51 6.38 7.66 4.31 5.81 C2.41 3.83 2.41 3.83 0 3 Z " fill="#997C52" transform="translate(52,45)"/>
<path d="M0 0 C0.99 0.33 1.98 0.66 3 1 C-1.59 6.73 -6.75 11.56 -12.2 16.45 C-17.05 20.3 -17.05 20.3 -19.38 25.62 C-19.21 28.18 -19.21 28.18 -17 30 C-14.67 30.63 -14.67 30.63 -12 30 C-9.82 28.22 -8.02 26.54 -6.12 24.5 C-5.6 23.95 -5.07 23.41 -4.53 22.85 C-1.05 19.2 2.34 15.47 5.6 11.62 C8.45 8.33 8.45 8.33 10 7 C10.99 7 11.98 7 13 7 C11.46 10.71 9.19 12.98 6.31 15.75 C3.12 18.87 0.04 22 -2.88 25.38 C-3.71 26.33 -3.71 26.33 -4.56 27.3 C-5.71 28.66 -6.81 30.07 -7.88 31.5 C-10.84 33.59 -13.32 33.44 -16.88 33.43 C-19.53 32.89 -20.41 32.17 -22 30 C-22.99 26.84 -22.87 24.18 -22 21 C-19.42 17.51 -16.3 14.8 -13 12 C-12.27 11.36 -11.55 10.72 -10.8 10.05 C-9.47 8.89 -8.14 7.73 -6.8 6.57 C-4.41 4.49 -2.2 2.27 0 0 Z " fill="#987B54" transform="translate(24,45)"/>
</svg>
